Coordinates
version=1
nRows=5
nColumns=63
inDegrees=yes

Units are S.I. units (second, meters, Newtons, ...)
If the header above contains a line with 'inDegrees', this indicates whether rotational values are in degrees (yes) or radians (no).

endheader
time	pelvis_tilt	pelvis_list	pelvis_rotation	pelvis_tx	pelvis_ty	pelvis_tz	hip_flexion_r	hip_adduction_r	hip_rotation_r	knee_angle_r	knee_angle_r_beta	ankle_angle_r	subtalar_angle_r	mtp_angle_r	hip_flexion_l	hip_adduction_l	hip_rotation_l	knee_angle_l	knee_angle_l_beta	ankle_angle_l	subtalar_angle_l	mtp_angle_l	L5_S1_Flex_Ext	L5_S1_Lat_Bending	L5_S1_axial_rotation	L4_L5_Flex_Ext	L4_L5_Lat_Bending	L4_L5_axial_rotation	L3_L4_Flex_Ext	L3_L4_Lat_Bending	L3_L4_axial_rotation	L2_L3_Flex_Ext	L2_L3_Lat_Bending	L2_L3_axial_rotation	L1_L2_Flex_Ext	L1_L2_Lat_Bending	L1_L2_axial_rotation	L1_T12_Flex_Ext	L1_T12_Lat_Bending	L1_T12_axial_rotation	Abs_r3	Abs_r2	Abs_r1	Abs_t1	Abs_t2	neck_flexion	neck_bending	neck_rotation	arm_flex_r	arm_add_r	arm_rot_r	elbow_flex_r	pro_sup_r	wrist_flex_r	wrist_dev_r	arm_flex_l	arm_add_l	arm_rot_l	elbow_flex_l	pro_sup_l	wrist_flex_l	wrist_dev_l
      2.83050847	      3.97075469	     -6.91955423	     93.75017967	      0.25505078	      0.65031939	      0.92296283	     15.63067426	      5.08112050	     -6.04464185	     17.91253768	      0.31263276	     28.88241559	     -1.54682995	      0.00000000	     11.93482299	     -3.97735502	    -13.74289604	     13.81305152	      0.24108323	     32.85549761	      6.98406931	      0.00000000	     -0.29236617	      0.72642603	      0.56063881	     -0.54295321	      0.96614662	      0.59567873	     -0.48032838	      1.76623226	      0.59567873	     -0.33414529	      1.76623226	      0.49055896	     -0.27149122	      1.48132797	      0.45551903	     -0.16705803	      1.12523392	      0.42047910	     -2.08834230	      8.21747657	      3.11810485	      0.00000000	      0.00000000	     -0.40046123	     -7.15075436	      5.12464077	     34.28226148	     -2.87320204	     17.42118130	    101.74762852	     89.07936622	    -25.22405811	    -15.96950564	     32.34119493	     -2.60069158	     14.96335822	    108.70242917	     88.35716545	     -8.45359230	     -2.35545750
      2.84745763	      3.69308912	     -6.68610455	     93.82361064	      0.25539416	      0.65079914	      0.92252243	     15.44474103	      4.91338367	     -5.40215376	     18.15023273	      0.31678132	     28.66051213	     -2.82455042	      0.00000000	     11.59168939	     -3.72382628	    -13.86530872	     13.67603951	      0.23869192	     32.49375868	      7.07497791	      0.00000000	     -0.27657327	      0.67912305	      0.45319350	     -0.51362423	      0.90323366	      0.48151809	     -0.45438223	      1.65121979	      0.48151809	     -0.31609559	      1.65121979	      0.39654431	     -0.25682594	      1.38486773	      0.36821971	     -0.15803397	      1.05196161	      0.33989512	     -1.97553523	      7.68237581	      2.52052626	      0.00000000	      0.00000000	     -0.35005586	     -7.18904663	      5.06857383	     33.47071043	     -2.44989173	     16.66247359	    100.91094725	     89.05673153	    -23.64066706	    -16.07843100	     31.80541812	     -3.55597629	     15.73878425	    108.89187116	     88.71166923	     -8.93373232	     -2.88936127
      2.86440678	      3.36029608	     -6.42217771	     93.83211721	      0.25544553	      0.65136405	      0.92195206	     15.19150970	      4.62270535	     -5.05374302	     18.36347796	      0.32050315	     28.62390113	     -3.32912088	      0.00000000	     11.18235704	     -3.38744283	    -13.94212366	     13.48087312	      0.23528562	     32.13225023	      7.10514717	      0.00000000	     -0.25890436	      0.63102993	      0.32073788	     -0.48081128	      0.83926981	      0.34078399	     -0.42535397	      1.53428618	      0.34078399	     -0.29590179	      1.53428618	      0.28064564	     -0.24041859	      1.28679624	      0.26059952	     -0.14793795	      0.97746537	      0.24055341	     -1.84932794	      7.13833680	      1.78384785	      0.00000000	      0.00000000	     -0.51342658	     -7.58585670	      5.04823145	     32.81815984	     -2.52816582	     16.81433774	    100.32865987	     88.98203832	    -22.89733885	    -15.29915248	     30.79128020	     -4.58427256	     16.16174049	    109.49922490	     88.96755083	     -8.94144131	     -2.60287930
      2.88135593	      3.00491275	     -6.16514222	     93.65478408	      0.25570014	      0.65183959	      0.92174929	     14.99653795	      4.35426407	     -4.50952723	     18.60484810	      0.32471586	     28.59407460	     -3.91120339	      0.00000000	     10.81907389	     -3.05013814	    -14.12241631	     13.37782273	      0.23348705	     31.95094600	      7.02239909	      0.00000000	     -0.25074313	      0.57996437	      0.18401483	     -0.46565506	      0.77135262	      0.19551575	     -0.41194588	      1.41012538	      0.19551575	     -0.28657432	      1.41012538	      0.16101297	     -0.23284007	      1.18266335	      0.14951205	     -0.14327462	      0.89836482	      0.13801112	     -1.79103307	      6.56067300	      1.02343527	      0.00000000	      0.00000000	     -0.68860623	     -7.73161913	      5.38146217	     32.59415114	     -2.98521851	     17.45205174	     99.77068948	     88.88703016	    -21.75013352	    -14.19067590	     29.53667108	     -5.79674196	     16.22556517	    110.37059035	     89.08737354	     -8.89610801	     -1.75602643
      2.89830508	      2.73439279	     -5.92804981	     93.29709777	      0.25609868	      0.65210351	      0.92142866	     14.79924586	      4.31822877	     -3.17385111	     18.76975557	      0.32759403	     28.40409984	     -5.36722687	      0.00000000	     10.51690205	     -2.83390039	    -14.39183557	     13.40564259	      0.23397260	     32.07133692	      6.91252253	      0.00000000	     -0.24271315	      0.54559377	      0.04343103	     -0.45074259	      0.72563971	      0.04614547	     -0.39875343	      1.32655669	      0.04614547	     -0.27739686	      1.32655669	      0.03800215	     -0.22538343	      1.11257481	      0.03528771	     -0.13868629	      0.84512475	      0.03257327	     -1.73367575	      6.17186583	      0.24155035	      0.00000000	      0.00000000	     -0.56939338	     -7.87267997	      6.37638425	     32.73110529	     -3.83695058	     18.58025544	     99.25896717	     88.83846276	    -20.12125650	    -13.01617922	     28.06811086	     -7.01574642	     15.47835784	    111.68495551	     89.13814930	     -7.46687224	      1.09191743
